<svg version="1.0" xmlns="http://www.w3.org/2000/svg" width="1500.000000pt" height="935.000000pt" viewBox="0 0 1500.000000 935.000000" preserveAspectRatio="xMidYMid meet">
	<g transform="translate(0.000000,935.000000) scale(0.100000,-0.100000)" fill="#000000" stroke="none">
		<path d="M0 4675 l0 -4675 7500 0 7500 0 0 4675 0 4675 -7500 0 -7500 0 0
-4675z m4305 3000 c101 -34 189 -88 260 -160 130 -131 186 -259 193 -445 4
-97 1 -129 -17 -195 -44 -160 -67 -190 -392 -525 -163 -168 -308 -315 -321
-328 l-25 -22 -921 -3 c-507 -1 -921 1 -920 5 4 8 1306 1330 1448 1468 115
113 182 159 287 197 117 42 296 46 408 8z m6798 -8 c109 -40 174 -85 302 -212
182 -180 1430 -1445 1433 -1453 1 -4 -413 -6 -920 -5 l-921 3 -25 22 c-13 13
-158 161 -322 329 -280 288 -300 311 -339 390 -60 122 -74 189 -69 328 3 93 9
131 30 189 72 201 222 349 423 417 111 38 291 34 408 -8z m-2450 18 c298 -78
500 -338 500 -645 0 -57 -7 -121 -18 -160 -13 -52 -219 -543 -346 -828 l-24
-52 -713 -3 c-391 -1 -712 1 -712 5 0 4 59 143 131 310 72 167 184 427 249
578 197 457 205 474 244 533 76 114 221 218 361 258 77 23 249 25 328 4z
m-4807 -2050 c12 -44 41 -150 63 -235 80 -295 153 -545 172 -582 22 -43 54
-68 87 -68 29 0 36 -19 28 -73 l-7 -43 -152 0 c-84 1 -192 -1 -242 -3 l-90 -4
0 53 0 53 50 12 c28 6 57 15 64 19 16 11 10 85 -14 164 l-16 52 -132 0 c-73 0
-142 -3 -154 -6 -18 -5 -28 -23 -48 -86 -14 -43 -25 -87 -25 -97 0 -30 26 -43
96 -49 l66 -5 -6 -30 c-3 -16 -6 -41 -6 -54 l0 -25 -157 7 c-116 5 -203 3
-330 -9 -150 -15 -176 -15 -205 -3 -59 26 -100 83 -188 260 l-85 172 -58 3
-57 3 0 -136 c0 -122 2 -137 20 -155 12 -12 33 -20 55 -20 43 0 50 -13 38 -72
l-9 -43 -228 -1 -228 -1 6 30 c3 16 6 40 6 53 0 18 7 24 33 29 38 8 60 22 75
52 15 27 17 760 2 783 -6 10 -24 14 -54 12 -53 -2 -55 2 -41 81 l6 37 277 0
c214 0 291 -3 335 -15 108 -28 169 -71 210 -150 30 -56 30 -171 0 -238 -26
-55 -108 -146 -158 -173 -22 -12 -33 -24 -30 -33 12 -31 169 -278 194 -304 53
-57 105 -71 164 -43 56 28 48 8 267 631 54 154 101 287 105 297 7 18 127 37
225 34 l54 -1 22 -80z m2245 -15 c15 -52 59 -212 98 -355 102 -375 128 -453
161 -487 17 -16 39 -28 55 -28 32 0 39 -18 31 -73 l-7 -43 -152 0 c-84 1 -192
-1 -242 -3 l-90 -4 -3 33 c-6 62 3 77 55 85 27 4 54 12 61 17 17 15 15 72 -7
148 l-18 65 -124 3 c-190 5 -183 8 -214 -95 -38 -122 -23 -143 98 -143 l40 0
-7 -37 c-3 -21 -6 -45 -6 -54 0 -15 -22 -17 -222 -14 -153 2 -223 7 -222 14 1
6 2 29 3 51 1 35 5 41 34 54 19 7 43 29 55 47 11 19 54 131 95 249 42 118 101
287 132 375 31 88 66 186 77 217 l19 56 77 7 c42 4 82 8 87 10 6 2 32 3 60 2
l49 -2 27 -95z m2554 83 c188 -3 328 -1 395 6 57 6 107 8 111 4 6 -7 31 -344
26 -349 -1 -1 -31 -3 -66 -5 l-65 -4 -12 73 c-19 113 -39 135 -136 146 l-56 7
-7 -96 c-4 -52 -8 -231 -9 -396 l-1 -301 24 -19 c17 -14 39 -19 87 -19 64 0
64 0 64 -29 0 -16 -3 -41 -6 -57 l-6 -29 -276 1 -276 1 3 44 c1 24 5 47 7 50
2 4 26 9 54 13 30 4 60 16 77 30 l28 24 3 391 c3 378 2 391 -16 391 -49 0
-128 -22 -149 -41 -20 -20 -38 -79 -45 -149 -3 -23 -8 -26 -68 -32 -35 -4 -65
-6 -67 -5 -3 4 18 340 23 356 3 9 14 11 37 7 17 -4 163 -9 322 -13z m1732 1
l312 -7 12 -28 c6 -16 9 -35 6 -42 -3 -8 -50 -75 -104 -148 -54 -74 -185 -264
-291 -424 -223 -334 -221 -302 -18 -286 132 10 163 21 208 68 27 28 68 128 68
165 0 23 37 38 96 38 l45 0 -5 -32 c-6 -34 -20 -164 -32 -278 -3 -36 -11 -71
-17 -78 -8 -10 -89 -13 -387 -11 -208 1 -382 -1 -388 -5 -5 -3 -20 10 -31 30
l-22 36 138 210 c76 115 207 313 291 440 l154 231 -121 -6 c-149 -8 -202 -21
-234 -55 -28 -31 -47 -81 -47 -124 0 -32 -3 -34 -83 -42 l-59 -6 6 47 c4 27
10 105 15 174 5 70 12 132 16 139 6 9 28 11 84 6 42 -3 216 -9 388 -12z m1048
6 c3 -5 35 -118 70 -251 88 -328 172 -613 190 -649 17 -33 47 -55 88 -65 23
-6 27 -12 27 -44 0 -20 -4 -41 -8 -47 -5 -8 -86 -13 -245 -16 l-238 -5 3 51 3
51 50 8 c27 4 56 13 63 20 17 14 12 77 -12 159 -17 57 -17 57 -63 64 -25 4
-95 3 -156 -2 l-112 -9 -21 -65 c-36 -109 -38 -126 -15 -149 17 -17 34 -21 81
-21 66 0 66 0 54 -70 l-6 -35 -216 3 c-120 2 -218 5 -220 6 -1 2 1 23 4 48 5
37 12 48 39 62 45 24 63 62 144 291 39 110 106 301 149 425 l80 225 103 11
c141 15 157 16 164 4z m-6750 -113 c38 -61 139 -218 225 -347 l155 -234 3 274
c3 274 2 275 -20 293 -16 13 -31 17 -54 12 -38 -7 -42 0 -34 64 l5 46 203 3
202 2 0 -53 0 -53 -42 -14 c-27 -9 -47 -24 -55 -40 -8 -17 -15 -170 -23 -475
-7 -247 -15 -453 -19 -456 -3 -4 -41 -11 -84 -16 l-79 -9 -56 89 c-148 231
-435 657 -443 657 -13 0 -12 -546 1 -571 9 -15 22 -19 66 -19 63 0 67 -6 56
-70 l-7 -44 -209 -2 -208 -1 6 36 c3 20 6 44 6 54 0 10 8 17 19 17 11 0 32 11
48 24 27 23 27 25 34 182 4 88 9 259 11 382 3 223 3 224 -20 242 -13 11 -43
22 -67 26 -25 3 -45 11 -46 18 -2 22 3 81 8 89 2 4 82 7 176 7 l172 0 70 -113z
m2305 70 c0 -46 -13 -67 -41 -67 -10 0 -30 -10 -44 -22 -25 -22 -26 -27 -35
-203 -5 -99 -10 -273 -10 -387 0 -196 1 -209 20 -228 16 -16 31 -20 68 -18
l47 3 -3 -50 c-2 -27 -5 -51 -5 -51 -1 -1 -107 -4 -234 -6 l-233 -5 0 47 c0
46 1 47 38 58 21 7 49 23 63 38 l24 26 0 385 c0 436 5 413 -83 413 -41 0 -44
2 -38 23 3 12 6 34 6 49 l0 27 153 4 c83 1 187 4 230 5 l77 2 0 -43z m571
-102 c142 -226 353 -539 367 -543 9 -3 12 44 11 210 0 244 -9 345 -30 359 -8
5 -31 9 -51 9 -36 0 -38 2 -38 33 0 76 -12 72 211 72 220 0 205 5 193 -67 -5
-30 -12 -38 -34 -43 -15 -3 -38 -17 -50 -30 -21 -23 -22 -32 -31 -337 -4 -172
-9 -379 -10 -460 -1 -167 10 -151 -109 -163 l-65 -6 -77 123 c-133 211 -403
611 -416 616 -9 3 -12 -62 -12 -282 l0 -286 25 -16 c19 -12 36 -15 66 -10 l42
7 -5 -51 c-3 -28 -7 -52 -9 -54 -2 -2 -95 -6 -207 -8 -202 -4 -203 -4 -198 16
3 12 6 33 6 49 0 22 7 30 39 43 25 10 43 25 50 42 10 24 30 476 31 673 0 93
-14 116 -85 134 -54 13 -61 24 -51 79 l6 32 172 -1 171 -1 88 -139z m2179 102
c0 -46 -13 -67 -41 -67 -10 0 -30 -10 -44 -22 -25 -22 -26 -27 -35 -203 -5
-99 -10 -273 -10 -387 0 -196 1 -209 20 -228 16 -16 31 -20 68 -18 l47 3 -3
-50 c-2 -27 -5 -51 -5 -51 -1 -1 -108 -4 -237 -6 l-235 -5 3 47 c4 45 6 48 41
59 20 6 48 22 62 37 l24 26 0 385 c0 436 5 413 -83 413 -41 0 -44 2 -38 23 3
12 6 34 6 49 l0 27 153 4 c83 1 187 4 230 5 l77 2 0 -43z m2797 20 c61 -20
129 -69 160 -116 28 -42 46 -130 38 -184 -16 -95 -80 -187 -171 -244 -24 -16
-44 -31 -44 -35 0 -4 41 -72 90 -152 96 -154 147 -209 208 -223 36 -9 37 -10
34 -48 -2 -22 -7 -43 -11 -48 -4 -4 -57 -10 -118 -14 -103 -5 -113 -4 -147 16
-48 30 -60 49 -160 249 l-86 172 -60 0 -60 0 0 -133 c0 -157 6 -171 75 -182
l46 -6 -7 -47 c-4 -26 -7 -48 -8 -49 -2 -2 -102 -4 -224 -5 -221 -3 -222 -3
-222 18 0 56 12 82 40 87 15 4 41 17 56 31 l29 24 3 374 c3 430 4 421 -71 426
l-48 3 7 47 c3 26 8 49 9 52 2 3 135 5 297 4 249 0 301 -3 345 -17z m-10907
-1012 c0 -421 -4 -765 -8 -765 -4 -1 -176 172 -383 382 l-376 383 375 382
c206 211 379 383 383 383 5 0 9 -344 9 -765z m12151 383 l376 -383 -375 -382
c-206 -211 -379 -383 -384 -383 -10 0 -11 1530 0 1530 4 0 176 -172 383 -382z
m-8141 -753 c0 -20 -5 -25 -25 -25 -14 0 -25 -5 -25 -11 0 -13 176 -485 190
-508 5 -9 10 -13 10 -8 0 4 22 79 50 168 l49 160 -26 72 c-39 109 -50 127 -78
127 -20 0 -25 5 -25 25 l0 26 108 -3 c102 -3 107 -4 110 -25 3 -20 -1 -23 -27
-23 -18 0 -31 -5 -31 -12 0 -17 161 -501 169 -511 7 -7 166 482 166 508 0 6
-12 11 -27 13 -22 3 -28 9 -28 28 0 24 1 24 90 24 89 0 90 0 90 -24 0 -19 -6
-25 -26 -28 -24 -3 -30 -15 -89 -188 -167 -488 -157 -465 -187 -468 -16 -2
-28 -2 -28 0 0 3 -108 318 -126 368 -4 12 -88 -230 -120 -347 -4 -17 -14 -23
-33 -23 -26 0 -31 10 -135 278 -145 370 -151 382 -175 382 -23 0 -35 15 -27
35 4 12 27 15 106 15 l100 0 0 -25z m1234 17 c2 -4 6 -37 7 -72 2 -57 0 -65
-16 -65 -18 0 -24 8 -44 58 l-11 27 -115 0 -115 0 0 -125 0 -125 85 0 c83 0
86 1 95 26 18 48 35 22 38 -59 3 -70 1 -77 -16 -77 -13 0 -22 9 -26 25 -6 24
-9 25 -91 25 l-85 0 0 -140 0 -140 129 0 129 0 16 40 c11 28 22 40 36 40 19 0
20 -5 14 -57 -3 -32 -7 -64 -10 -70 -2 -10 -59 -13 -239 -13 l-236 0 3 23 c2
17 11 23 36 25 l32 3 -2 302 -3 302 -32 3 c-24 2 -33 8 -33 21 0 10 3 21 7 24
9 10 441 9 447 -1z m548 -21 c59 -28 88 -72 88 -135 0 -60 -20 -99 -70 -135
l-40 -28 44 -17 c151 -58 151 -263 -1 -337 -45 -23 -61 -24 -255 -27 l-208 -4
0 25 c0 22 5 26 33 29 l32 3 0 300 0 300 -32 3 c-28 3 -33 7 -33 29 l0 25 198
-4 c180 -3 201 -6 244 -27z m595 18 c101 -14 171 -48 227 -110 62 -68 79 -127
74 -243 -3 -80 -8 -99 -37 -154 -40 -74 -93 -125 -170 -161 -55 -25 -60 -26
-266 -26 -203 0 -210 1 -210 20 0 15 8 21 35 25 l35 5 0 300 0 300 -30 3 c-37
4 -50 16 -42 36 5 14 29 16 156 16 82 0 185 -5 228 -11z m846 -53 c10 -70 5
-86 -22 -79 -14 3 -24 19 -31 44 l-11 39 -114 0 -115 0 0 -125 0 -125 84 0
c80 0 85 1 88 23 2 14 10 22 23 22 18 0 20 -7 20 -75 0 -63 -3 -75 -17 -78
-12 -2 -21 6 -28 22 -9 25 -13 26 -90 26 l-80 0 0 -140 0 -140 126 0 126 0 15
40 c11 27 22 40 35 40 20 0 23 -31 12 -103 l-7 -37 -236 2 c-228 3 -236 4
-236 23 0 15 8 21 33 23 l32 3 0 305 0 304 -29 0 c-33 0 -46 13 -37 36 5 12
40 14 228 12 l223 -3 8 -59z m252 39 c0 -15 -8 -21 -32 -23 -18 -2 -33 -6 -33
-10 -1 -18 205 -521 211 -514 10 11 199 496 199 510 0 7 -13 12 -30 12 -25 0
-30 4 -30 25 l0 26 93 -3 c84 -3 92 -5 92 -23 0 -13 -8 -21 -24 -23 -28 -4
-27 -2 -175 -377 -106 -266 -112 -280 -139 -283 -19 -2 -29 2 -34 15 -7 22
-148 365 -214 523 -42 101 -51 115 -73 118 -20 3 -26 9 -26 28 l0 25 108 -3
c99 -3 107 -4 107 -23z m-4940 -1117 c441 -449 480 -491 517 -563 61 -117 81
-209 76 -345 -8 -187 -63 -315 -195 -447 -122 -121 -276 -184 -453 -184 -211
1 -350 70 -550 277 -52 55 -387 395 -745 757 -357 362 -651 662 -653 665 -1 4
413 6 920 5 l923 -3 160 -162z m3455 159 c0 -4 -27 -70 -59 -145 -32 -75 -159
-369 -281 -652 -122 -283 -235 -541 -252 -572 -39 -74 -125 -169 -197 -217
-116 -79 -223 -111 -366 -111 -156 0 -276 40 -397 133 -213 161 -310 446 -239
705 9 32 350 836 366 862 5 8 1425 6 1425 -3z m5218 2 c-6 -15 -1464 -1489
-1525 -1542 -123 -106 -261 -157 -423 -158 -177 0 -331 63 -453 184 -132 132
-187 260 -195 447 -5 136 15 228 76 345 38 73 136 180 522 565 l165 165 918 0
c504 0 916 -3 915 -6z" />
		<path d="M2517 5495 c-4 -43 -7 -126 -7 -185 l0 -107 71 -7 c65 -6 76 -4 115
19 68 40 88 77 92 165 3 65 1 79 -20 109 -36 53 -79 74 -168 79 l-77 4 -6 -77z" />
		<path d="M3642 5474 c-11 -23 -112 -331 -112 -345 0 -5 50 -9 116 -9 89 0 115
3 111 13 -2 6 -24 86 -47 177 -24 91 -47 169 -51 174 -4 4 -11 0 -17 -10z" />
		<path d="M5885 5479 c-17 -45 -115 -345 -115 -351 0 -4 52 -8 116 -8 105 0
115 2 110 18 -3 9 -24 89 -47 177 -41 159 -53 192 -64 164z" />
		<path d="M11245 5478 c-24 -63 -115 -345 -115 -355 0 -14 95 -18 186 -7 l51 6
-42 163 c-24 89 -46 172 -50 184 -7 23 -23 28 -30 9z" />
		<path d="M12225 5570 c-10 -16 -22 -360 -13 -366 3 -2 39 -7 80 -10 69 -6 75
-4 118 24 59 40 81 80 87 156 9 121 -57 188 -198 202 -49 5 -68 3 -74 -6z" />
		<path d="M7130 4145 l0 -125 85 0 c52 0 99 6 120 14 67 28 95 118 56 182 -23
38 -77 54 -185 54 l-76 0 0 -125z" />
		<path d="M7130 3819 l0 -142 108 5 c121 5 174 23 197 69 21 40 19 108 -5 147
-30 49 -72 62 -195 62 l-105 0 0 -141z" />
		<path d="M7790 3976 l0 -296 98 0 c122 0 189 19 243 67 57 52 81 104 87 191 6
96 -18 186 -63 240 -52 60 -116 83 -251 89 l-114 6 0 -297z" />
	</g>
</svg>
